<?xml version="1.0" encoding="UTF-8"?>
<svg xmlns="http://www.w3.org/2000/svg" xmlns:xlink="http://www.w3.org/1999/xlink" width="40px" height="57px" viewBox="0 0 40 56" version="1.1">
<g id="surface1">
<path style=" stroke:none;fill-rule:nonzero;fill:rgb(0%,0%,0%);fill-opacity:1;" d="M 15.722656 21.820312 C 15.15625 20.679688 14.660156 19.53125 14.0625 18.429688 C 14.011719 18.335938 13.976562 18.234375 14.082031 18.160156 C 14.207031 18.074219 14.292969 18.160156 14.359375 18.253906 C 14.625 18.625 14.871094 19.011719 15.179688 19.355469 C 15.332031 19.523438 15.492188 19.6875 15.660156 19.84375 C 15.800781 19.972656 15.972656 20.050781 16.167969 19.96875 C 16.367188 19.886719 16.425781 19.714844 16.429688 19.523438 C 16.445312 19.1875 16.453125 18.851562 16.398438 18.515625 C 16.386719 18.425781 16.378906 18.332031 16.382812 18.242188 C 16.382812 18.15625 16.421875 18.078125 16.511719 18.054688 C 16.621094 18.023438 16.695312 18.082031 16.738281 18.167969 C 16.832031 18.359375 16.914062 18.550781 17 18.742188 C 17.117188 18.992188 17.265625 19.222656 17.476562 19.40625 C 17.863281 19.746094 18.320312 19.714844 18.636719 19.308594 C 19 18.835938 19.097656 18.265625 19.199219 17.699219 C 19.269531 17.316406 19.3125 16.925781 19.367188 16.539062 C 19.386719 16.410156 19.398438 16.265625 19.574219 16.265625 C 19.742188 16.261719 19.738281 16.410156 19.757812 16.523438 C 19.835938 17.070312 19.886719 17.625 20.011719 18.167969 C 20.097656 18.523438 20.203125 18.871094 20.394531 19.1875 C 20.71875 19.734375 21.367188 19.78125 21.777344 19.300781 C 22.039062 18.996094 22.183594 18.632812 22.367188 18.285156 C 22.425781 18.171875 22.472656 18.019531 22.632812 18.058594 C 22.804688 18.101562 22.746094 18.253906 22.746094 18.378906 C 22.742188 18.734375 22.652344 19.085938 22.679688 19.441406 C 22.699219 19.660156 22.738281 19.863281 22.96875 19.960938 C 23.203125 20.0625 23.386719 19.957031 23.550781 19.8125 C 23.929688 19.484375 24.207031 19.074219 24.496094 18.671875 C 24.601562 18.523438 24.707031 18.375 24.820312 18.230469 C 24.878906 18.148438 24.960938 18.097656 25.058594 18.152344 C 25.164062 18.214844 25.125 18.3125 25.082031 18.394531 C 24.953125 18.65625 24.8125 18.914062 24.6875 19.175781 C 24.316406 19.96875 23.945312 20.765625 23.578125 21.558594 C 23.375 22 23.351562 22.011719 22.898438 21.859375 C 22.101562 21.589844 21.273438 21.5 20.441406 21.460938 C 19.199219 21.410156 17.960938 21.433594 16.746094 21.722656 C 16.53125 21.773438 16.316406 21.839844 16.113281 21.925781 C 15.953125 21.992188 15.828125 21.992188 15.722656 21.820312 Z M 15.722656 21.820312 "/>
<path style=" stroke:none;fill-rule:nonzero;fill:rgb(0%,0%,0%);fill-opacity:1;" d="M 16.710938 22.707031 C 17.335938 22.871094 17.960938 22.898438 18.578125 22.992188 C 18.546875 23.175781 18.433594 23.148438 18.351562 23.144531 C 17.667969 23.117188 16.992188 23.03125 16.328125 22.859375 C 16.253906 22.839844 16.1875 22.808594 16.121094 22.773438 C 16 22.710938 15.921875 22.613281 15.925781 22.46875 C 15.933594 22.328125 16.027344 22.257812 16.140625 22.207031 C 16.570312 22.027344 17.019531 21.925781 17.480469 21.867188 C 18.808594 21.703125 20.136719 21.730469 21.46875 21.820312 C 21.902344 21.851562 22.328125 21.929688 22.742188 22.066406 C 22.859375 22.101562 22.96875 22.148438 23.058594 22.230469 C 23.300781 22.445312 23.289062 22.695312 22.992188 22.816406 C 22.1875 23.136719 21.335938 23.167969 20.484375 23.125 C 20.460938 23.125 20.4375 23.097656 20.335938 23.035156 C 21.171875 22.816406 21.984375 22.84375 22.71875 22.527344 C 20.558594 22.042969 18.398438 22.101562 16.164062 22.441406 C 16.347656 22.65625 16.527344 22.65625 16.710938 22.707031 Z M 16.710938 22.707031 "/>
<path style=" stroke:none;fill-rule:nonzero;fill:rgb(0%,0%,0%);fill-opacity:1;" d="M 19.558594 15.878906 C 19.214844 15.835938 19.050781 15.691406 19.054688 15.453125 C 19.054688 15.226562 19.261719 15.019531 19.515625 14.988281 C 19.773438 14.960938 20.058594 15.15625 20.105469 15.386719 C 20.160156 15.648438 19.957031 15.835938 19.558594 15.878906 Z M 19.558594 15.878906 "/>
<path style=" stroke:none;fill-rule:nonzero;fill:rgb(0%,0%,0%);fill-opacity:1;" d="M 15.808594 16.976562 C 15.996094 16.832031 16.191406 16.800781 16.398438 16.851562 C 16.570312 16.898438 16.691406 17 16.726562 17.179688 C 16.761719 17.355469 16.695312 17.5 16.554688 17.609375 C 16.339844 17.777344 16.03125 17.761719 15.820312 17.566406 C 15.632812 17.386719 15.613281 17.191406 15.808594 16.976562 Z M 15.808594 16.976562 "/>
<path style=" stroke:none;fill-rule:nonzero;fill:rgb(0%,0%,0%);fill-opacity:1;" d="M 25.996094 17.660156 C 25.800781 17.859375 25.585938 17.941406 25.335938 17.847656 C 25.125 17.765625 25.011719 17.605469 25.035156 17.378906 C 25.054688 17.144531 25.210938 17.027344 25.433594 17 C 25.652344 16.972656 25.863281 17.003906 26.007812 17.191406 C 26.117188 17.335938 26.125 17.492188 25.996094 17.660156 Z M 25.996094 17.660156 "/>
<path style=" stroke:none;fill-rule:nonzero;fill:rgb(0%,0%,0%);fill-opacity:1;" d="M 22.40625 17.359375 C 22.363281 17.113281 22.472656 16.96875 22.671875 16.886719 C 22.890625 16.800781 23.113281 16.789062 23.300781 16.949219 C 23.457031 17.078125 23.503906 17.257812 23.40625 17.441406 C 23.289062 17.660156 23.09375 17.757812 22.851562 17.714844 C 22.652344 17.679688 22.488281 17.578125 22.40625 17.359375 Z M 22.40625 17.359375 "/>
<path style=" stroke:none;fill-rule:nonzero;fill:rgb(0%,0%,0%);fill-opacity:1;" d="M 13.257812 17.089844 C 13.363281 17.015625 13.460938 16.996094 13.566406 16.992188 C 13.859375 16.988281 14.078125 17.109375 14.136719 17.328125 C 14.199219 17.570312 14.054688 17.707031 13.867188 17.808594 C 13.640625 17.9375 13.355469 17.894531 13.207031 17.714844 C 13.042969 17.507812 13.046875 17.296875 13.257812 17.089844 Z M 13.257812 17.089844 "/>
</g>
</svg>
