<?xml version="1.0" encoding="UTF-8"?>
<svg xmlns="http://www.w3.org/2000/svg" xmlns:xlink="http://www.w3.org/1999/xlink" width="30px" height="51px" viewBox="0 0 30 50" version="1.1">
<g id="surface1">
<path style=" stroke:none;fill-rule:nonzero;fill:rgb(0%,0%,0%);fill-opacity:1;" d="M 14.050781 13.96875 C 13.914062 13.53125 13.777344 13.113281 13.644531 12.695312 C 13.621094 12.617188 13.601562 12.539062 13.582031 12.460938 C 13.574219 12.410156 13.582031 12.359375 13.632812 12.332031 C 13.683594 12.304688 13.730469 12.328125 13.769531 12.355469 C 13.882812 12.433594 13.945312 12.546875 14.011719 12.660156 C 14.128906 12.867188 14.238281 13.074219 14.367188 13.273438 C 14.441406 13.386719 14.558594 13.472656 14.699219 13.4375 C 14.847656 13.398438 14.867188 13.257812 14.890625 13.125 C 14.921875 12.9375 14.890625 12.738281 15.019531 12.550781 C 15.21875 12.648438 15.25 12.847656 15.351562 12.996094 C 15.4375 13.117188 15.457031 13.332031 15.652344 13.300781 C 15.835938 13.273438 15.890625 13.078125 15.914062 12.921875 C 15.980469 12.519531 16.023438 12.117188 16.070312 11.714844 C 16.089844 11.578125 16.082031 11.433594 16.207031 11.335938 C 16.328125 11.375 16.335938 11.476562 16.347656 11.570312 C 16.398438 11.957031 16.445312 12.34375 16.492188 12.730469 C 16.496094 12.757812 16.492188 12.78125 16.5 12.804688 C 16.554688 12.996094 16.546875 13.257812 16.789062 13.296875 C 17.011719 13.335938 17.027344 13.070312 17.121094 12.933594 C 17.207031 12.808594 17.242188 12.644531 17.402344 12.566406 C 17.542969 12.648438 17.519531 12.785156 17.53125 12.910156 C 17.554688 13.105469 17.503906 13.367188 17.753906 13.429688 C 18.015625 13.492188 18.101562 13.242188 18.214844 13.066406 C 18.347656 12.863281 18.425781 12.625 18.585938 12.4375 C 18.644531 12.371094 18.714844 12.285156 18.816406 12.34375 C 18.898438 12.398438 18.863281 12.492188 18.835938 12.570312 C 18.644531 13.191406 18.449219 13.8125 18.253906 14.433594 C 18.21875 14.550781 18.167969 14.613281 18.023438 14.558594 C 17.167969 14.242188 16.28125 14.289062 15.394531 14.347656 C 15.058594 14.367188 14.722656 14.417969 14.410156 14.554688 C 14.304688 14.597656 14.238281 14.5625 14.203125 14.453125 C 14.15625 14.296875 14.105469 14.144531 14.050781 13.96875 Z M 14.050781 13.96875 "/>
<path style=" stroke:none;fill-rule:nonzero;fill:rgb(0%,0%,0%);fill-opacity:1;" d="M 15.6875 15.871094 C 16.183594 16.578125 16.667969 17.269531 17.15625 17.96875 C 17.238281 17.898438 17.214844 17.828125 17.214844 17.769531 C 17.21875 17.222656 17.210938 16.679688 17.21875 16.132812 C 17.222656 15.941406 17.152344 15.863281 16.960938 15.882812 C 16.878906 15.890625 16.796875 15.882812 16.714844 15.875 C 16.601562 15.867188 16.558594 15.800781 16.558594 15.695312 C 16.558594 15.589844 16.601562 15.523438 16.714844 15.511719 C 17.191406 15.46875 17.667969 15.472656 18.144531 15.492188 C 18.273438 15.496094 18.363281 15.558594 18.355469 15.707031 C 18.347656 15.859375 18.238281 15.882812 18.113281 15.878906 C 17.640625 15.863281 17.679688 15.890625 17.679688 16.328125 C 17.679688 17.066406 17.679688 17.808594 17.679688 18.550781 C 17.679688 18.847656 17.546875 18.933594 17.253906 18.835938 C 17.101562 18.785156 16.996094 18.671875 16.90625 18.542969 C 16.484375 17.9375 16.066406 17.335938 15.648438 16.730469 C 15.570312 16.621094 15.492188 16.511719 15.40625 16.386719 C 15.332031 16.5 15.359375 16.589844 15.359375 16.675781 C 15.355469 17.15625 15.359375 17.636719 15.359375 18.117188 C 15.359375 18.484375 15.359375 18.484375 15.71875 18.488281 C 15.773438 18.488281 15.832031 18.488281 15.890625 18.496094 C 16 18.515625 16.035156 18.59375 16.03125 18.691406 C 16.023438 18.785156 15.976562 18.851562 15.878906 18.855469 C 15.378906 18.859375 14.875 18.859375 14.375 18.851562 C 14.28125 18.851562 14.230469 18.777344 14.230469 18.6875 C 14.226562 18.585938 14.265625 18.511719 14.375 18.496094 C 14.394531 18.492188 14.410156 18.492188 14.425781 18.488281 C 14.894531 18.433594 14.894531 18.433594 14.894531 17.960938 C 14.894531 17.367188 14.886719 16.773438 14.898438 16.179688 C 14.902344 15.964844 14.839844 15.863281 14.605469 15.875 C 14.460938 15.882812 14.230469 15.960938 14.230469 15.699219 C 14.230469 15.441406 14.457031 15.519531 14.605469 15.511719 C 15.003906 15.496094 15.40625 15.484375 15.6875 15.871094 Z M 15.6875 15.871094 "/>
<path style=" stroke:none;fill-rule:nonzero;fill:rgb(0%,0%,0%);fill-opacity:1;" d="M 16.375 11.175781 C 16.203125 11.28125 16.09375 11.214844 16.015625 11.082031 C 15.949219 10.96875 15.980469 10.859375 16.082031 10.78125 C 16.195312 10.695312 16.316406 10.707031 16.414062 10.804688 C 16.527344 10.925781 16.507812 11.050781 16.375 11.175781 Z M 16.375 11.175781 "/>
<path style=" stroke:none;fill-rule:nonzero;fill:rgb(0%,0%,0%);fill-opacity:1;" d="M 13.730469 12.117188 C 13.628906 12.25 13.523438 12.308594 13.382812 12.226562 C 13.265625 12.152344 13.222656 12.039062 13.277344 11.914062 C 13.328125 11.796875 13.429688 11.734375 13.554688 11.769531 C 13.710938 11.820312 13.800781 11.925781 13.730469 12.117188 Z M 13.730469 12.117188 "/>
<path style=" stroke:none;fill-rule:nonzero;fill:rgb(0%,0%,0%);fill-opacity:1;" d="M 18.894531 11.761719 C 19.070312 11.796875 19.164062 11.890625 19.140625 12.050781 C 19.121094 12.171875 19.027344 12.25 18.902344 12.261719 C 18.769531 12.273438 18.683594 12.1875 18.65625 12.070312 C 18.613281 11.898438 18.699219 11.792969 18.894531 11.761719 Z M 18.894531 11.761719 "/>
<path style=" stroke:none;fill-rule:nonzero;fill:rgb(0%,0%,0%);fill-opacity:1;" d="M 14.90625 12.488281 C 14.820312 12.472656 14.765625 12.441406 14.726562 12.386719 C 14.644531 12.273438 14.636719 12.152344 14.746094 12.058594 C 14.847656 11.964844 14.96875 11.945312 15.078125 12.050781 C 15.1875 12.15625 15.195312 12.277344 15.09375 12.398438 C 15.050781 12.449219 14.992188 12.480469 14.90625 12.488281 Z M 14.90625 12.488281 "/>
<path style=" stroke:none;fill-rule:nonzero;fill:rgb(0%,0%,0%);fill-opacity:1;" d="M 17.285156 12.28125 C 17.269531 12.097656 17.351562 12.003906 17.515625 11.988281 C 17.640625 11.976562 17.734375 12.046875 17.765625 12.171875 C 17.804688 12.308594 17.738281 12.410156 17.613281 12.460938 C 17.453125 12.527344 17.351562 12.445312 17.285156 12.28125 Z M 17.285156 12.28125 "/>
</g>
</svg>
