<?xml version="1.0" encoding="UTF-8"?>
<svg xmlns="http://www.w3.org/2000/svg" xmlns:xlink="http://www.w3.org/1999/xlink" width="40px" height="57px" viewBox="0 0 40 56" version="1.1">
<g id="surface1">
<path style=" stroke:none;fill-rule:nonzero;fill:rgb(0%,0%,0%);fill-opacity:1;" d="M 18.113281 36.703125 C 16.972656 36.316406 15.828125 36.277344 14.667969 36.40625 C 14.136719 36.464844 13.601562 36.535156 13.066406 36.550781 C 12.898438 36.554688 12.796875 36.503906 12.722656 36.347656 C 12.511719 35.910156 12.277344 35.484375 12.070312 35.046875 C 11.976562 34.851562 11.871094 34.78125 11.640625 34.820312 C 11.132812 34.914062 10.617188 34.972656 10.105469 35.042969 C 10 35.054688 9.886719 35.101562 9.742188 34.933594 C 10.402344 34.710938 11.050781 34.589844 11.742188 34.453125 C 11.640625 34.28125 11.550781 34.125 11.457031 33.972656 C 10.988281 33.207031 10.449219 32.492188 9.839844 31.828125 C 9.726562 31.703125 9.636719 31.671875 9.484375 31.761719 C 9.0625 32.011719 8.625 32.003906 8.242188 31.703125 C 7.832031 31.382812 7.691406 30.933594 7.785156 30.429688 C 7.871094 29.960938 8.429688 29.613281 8.984375 29.695312 C 9.882812 29.828125 10.296875 30.441406 9.964844 31.339844 C 9.90625 31.507812 9.945312 31.589844 10.054688 31.695312 C 10.734375 32.359375 11.5625 32.738281 12.496094 32.894531 C 13.050781 32.992188 13.371094 32.6875 13.316406 32.132812 C 13.300781 31.980469 13.253906 31.832031 13.21875 31.679688 C 13.175781 31.492188 13.089844 31.359375 12.890625 31.277344 C 12.617188 31.167969 12.484375 30.84375 12.5625 30.570312 C 12.652344 30.238281 12.886719 30.050781 13.191406 30.0625 C 13.476562 30.074219 13.652344 30.222656 13.742188 30.480469 C 13.835938 30.746094 13.808594 30.984375 13.578125 31.175781 C 13.515625 31.226562 13.445312 31.269531 13.355469 31.335938 C 13.566406 31.785156 13.796875 32.214844 14.253906 32.472656 C 14.511719 32.617188 14.777344 32.621094 15.050781 32.488281 C 16.09375 31.984375 16.722656 31.148438 17.089844 30.085938 C 17.328125 29.402344 17.351562 28.695312 17.390625 27.984375 C 17.398438 27.878906 17.367188 27.816406 17.265625 27.777344 C 17.101562 27.710938 16.957031 27.609375 16.84375 27.472656 C 16.425781 26.972656 16.4375 26.460938 16.882812 26.035156 C 17.335938 25.601562 17.972656 25.582031 18.441406 25.972656 C 18.773438 26.25 18.941406 26.5625 18.789062 27.003906 C 18.632812 27.457031 18.347656 27.761719 17.863281 27.839844 C 17.683594 27.867188 17.621094 27.933594 17.636719 28.101562 C 17.691406 28.671875 17.671875 29.25 17.800781 29.8125 C 18.0625 30.945312 18.667969 31.867188 19.585938 32.597656 C 19.886719 32.835938 20.496094 32.757812 20.722656 32.421875 C 20.886719 32.183594 21 31.925781 21.117188 31.667969 C 21.179688 31.539062 21.097656 31.46875 21.023438 31.382812 C 20.816406 31.136719 20.8125 30.816406 21.003906 30.554688 C 21.1875 30.304688 21.511719 30.203125 21.792969 30.304688 C 22.078125 30.40625 22.261719 30.691406 22.238281 30.992188 C 22.21875 31.277344 21.988281 31.519531 21.628906 31.566406 C 21.421875 31.59375 21.367188 31.703125 21.355469 31.871094 C 21.335938 32.175781 21.359375 32.472656 21.4375 32.765625 C 21.570312 33.285156 21.894531 33.613281 22.441406 33.695312 C 23.160156 33.800781 23.859375 33.71875 24.546875 33.492188 C 24.597656 33.472656 24.644531 33.441406 24.695312 33.414062 C 24.726562 33.398438 24.753906 33.371094 24.777344 33.355469 C 24.796875 33.246094 24.71875 33.175781 24.695312 33.089844 C 24.585938 32.722656 24.628906 32.378906 24.914062 32.101562 C 25.222656 31.800781 25.585938 31.609375 26.039062 31.769531 C 26.410156 31.898438 26.585938 32.1875 26.644531 32.550781 C 26.757812 33.238281 26.085938 33.835938 25.382812 33.667969 C 25.257812 33.640625 25.15625 33.605469 25.023438 33.695312 C 24.027344 34.386719 23.164062 35.226562 22.269531 36.03125 C 22.246094 36.054688 22.234375 36.089844 22.210938 36.128906 C 22.515625 36.410156 22.9375 36.558594 23.101562 36.96875 C 23.125 37.019531 23.121094 37.078125 23.027344 37.125 C 22.808594 36.816406 22.480469 36.621094 22.160156 36.417969 C 22.003906 36.320312 21.902344 36.339844 21.777344 36.464844 C 21.40625 36.839844 21.058594 37.226562 20.832031 37.707031 C 20.773438 37.835938 20.710938 37.925781 20.542969 37.808594 C 19.808594 37.296875 18.976562 36.992188 18.113281 36.703125 M 11.875 33.089844 C 11.609375 32.976562 11.34375 32.867188 11.058594 32.75 C 11.429688 33.261719 11.789062 33.746094 12.136719 34.238281 C 12.214844 34.351562 12.304688 34.390625 12.4375 34.375 C 13.796875 34.246094 15.152344 34.257812 16.515625 34.324219 C 18.351562 34.417969 20.074219 34.875 21.652344 35.816406 C 21.808594 35.910156 21.910156 35.890625 22.035156 35.765625 C 22.515625 35.273438 23.007812 34.792969 23.496094 34.304688 C 23.519531 34.28125 23.550781 34.253906 23.523438 34.214844 C 20.363281 34.566406 18.046875 32.308594 17.472656 29.570312 C 17.296875 30.210938 17.050781 30.796875 16.703125 31.351562 C 15.644531 33.039062 13.625 33.695312 11.875 33.089844 M 21.105469 35.855469 C 20.273438 35.449219 19.410156 35.128906 18.5 34.949219 C 16.679688 34.585938 14.839844 34.605469 13 34.703125 C 12.832031 34.710938 12.652344 34.703125 12.472656 34.785156 C 12.632812 35.195312 12.792969 35.589844 12.933594 35.992188 C 12.992188 36.160156 13.070312 36.214844 13.25 36.1875 C 13.808594 36.105469 14.371094 36.066406 14.929688 36.007812 C 16.875 35.796875 18.628906 36.316406 20.265625 37.300781 C 20.382812 37.371094 20.472656 37.480469 20.617188 37.515625 C 20.832031 36.964844 21.238281 36.5625 21.636719 36.125 C 21.453125 36.03125 21.296875 35.953125 21.105469 35.855469 M 18.09375 26.0625 C 17.726562 25.941406 17.359375 25.929688 17.058594 26.203125 C 16.800781 26.4375 16.765625 26.890625 16.933594 27.191406 C 17.097656 27.496094 17.457031 27.6875 17.785156 27.644531 C 18.175781 27.597656 18.492188 27.316406 18.578125 26.945312 C 18.648438 26.625 18.488281 26.3125 18.09375 26.0625 M 9.320312 31.523438 C 9.421875 31.445312 9.542969 31.390625 9.609375 31.273438 C 9.777344 30.96875 9.734375 30.476562 9.511719 30.246094 C 9.273438 29.996094 8.730469 29.898438 8.398438 30.042969 C 8.105469 30.171875 8.011719 30.410156 8.0625 30.886719 C 8.132812 31.5 8.714844 31.816406 9.320312 31.523438 M 24.910156 32.550781 C 24.859375 33.039062 25.089844 33.363281 25.519531 33.410156 C 25.886719 33.449219 26.199219 33.257812 26.296875 32.933594 C 26.402344 32.582031 26.234375 32.238281 25.871094 32.054688 C 25.5 31.871094 25.316406 31.917969 25.050781 32.269531 C 24.996094 32.339844 24.960938 32.429688 24.910156 32.550781 Z M 24.910156 32.550781 "/>
</g>
</svg>
