<?xml version="1.0" encoding="UTF-8"?>
<svg xmlns="http://www.w3.org/2000/svg" xmlns:xlink="http://www.w3.org/1999/xlink" width="67px" height="67px" viewBox="0 0 67 67" version="1.1">
<g id="surface1">
<path style=" stroke:none;fill-rule:nonzero;fill:rgb(0%,0%,0%);fill-opacity:1;" d="M 40.367188 38.570312 C 37.265625 38.039062 34.179688 38.074219 31.109375 38.191406 C 28.039062 38.304688 24.976562 38.628906 22.082031 39.902344 C 21.820312 39.472656 21.761719 38.988281 21.679688 38.527344 C 21.1875 35.753906 19.761719 33.515625 17.796875 31.574219 C 17.109375 30.894531 16.378906 30.261719 15.789062 29.484375 C 15.242188 28.769531 14.808594 28.003906 14.613281 27.078125 C 14.878906 27.054688 15 27.230469 15.132812 27.347656 C 16.15625 28.238281 17.363281 28.671875 18.6875 28.84375 C 19.746094 28.984375 20.738281 29.253906 21.269531 30.316406 C 21.464844 30.710938 21.628906 31.117188 21.53125 31.574219 C 21.277344 31.609375 21.195312 31.410156 21.050781 31.324219 C 20.773438 31.164062 20.484375 31.019531 20.226562 31.308594 C 19.972656 31.597656 20.164062 31.859375 20.363281 32.066406 C 21.191406 32.925781 22.214844 33.453125 23.347656 33.796875 C 24.945312 34.28125 26.390625 34.078125 27.464844 32.707031 C 28.59375 31.265625 28.84375 29.636719 28.179688 27.90625 C 27.96875 27.355469 27.722656 26.820312 27.5 26.273438 C 27.191406 25.5 27.136719 24.707031 27.347656 23.90625 C 27.605469 22.917969 28.078125 22.019531 28.527344 21.113281 C 28.601562 21.144531 28.65625 21.15625 28.660156 21.171875 C 28.8125 22.527344 29.585938 23.414062 30.765625 24.007812 C 31.273438 24.261719 31.695312 24.617188 31.9375 25.140625 C 32.195312 25.699219 32.195312 26.234375 31.820312 26.714844 C 31.660156 26.734375 31.605469 26.65625 31.578125 26.574219 C 31.480469 26.28125 31.324219 26.035156 30.988281 26.039062 C 30.597656 26.046875 30.328125 26.285156 30.152344 26.625 C 29.675781 27.53125 29.777344 28.640625 30.484375 29.425781 C 31.074219 30.085938 31.613281 30.757812 31.894531 31.613281 C 32.019531 32.003906 32.398438 32.183594 32.804688 32.390625 C 32.363281 32.699219 32.050781 32.589844 31.757812 32.355469 C 31.507812 32.15625 31.277344 31.929688 31.023438 31.734375 C 30.871094 31.617188 30.691406 31.601562 30.53125 31.753906 C 30.386719 31.890625 30.433594 32.039062 30.5 32.195312 C 30.699219 32.671875 31.011719 33.054688 31.425781 33.355469 C 33.035156 34.53125 35.316406 34.277344 36.628906 32.78125 C 36.679688 32.726562 36.730469 32.675781 36.765625 32.613281 C 36.941406 32.328125 37.230469 31.992188 36.878906 31.714844 C 36.570312 31.472656 36.335938 31.828125 36.125 32.03125 C 35.519531 32.605469 35.28125 32.683594 34.558594 32.363281 C 35.59375 32.195312 35.625 31.351562 35.976562 30.738281 C 36.253906 30.253906 36.660156 29.871094 37.011719 29.441406 C 37.652344 28.65625 37.832031 27.792969 37.4375 26.832031 C 37.347656 26.613281 37.234375 26.417969 37.050781 26.261719 C 36.625 25.902344 36.300781 25.949219 35.988281 26.414062 C 35.921875 26.511719 35.902344 26.65625 35.757812 26.6875 C 35.136719 26.175781 35.351562 25.128906 35.953125 24.566406 C 36.210938 24.324219 36.507812 24.105469 36.820312 23.941406 C 37.859375 23.390625 38.597656 22.628906 38.785156 21.421875 C 38.800781 21.328125 38.800781 21.203125 38.941406 21.152344 C 40.109375 23.101562 40.792969 25.070312 39.597656 27.300781 C 38.636719 29.089844 38.71875 30.898438 39.914062 32.566406 C 40.65625 33.605469 41.699219 34.167969 43.015625 34.003906 C 44.566406 33.8125 45.953125 33.238281 47.066406 32.105469 C 47.28125 31.890625 47.609375 31.625 47.277344 31.292969 C 46.984375 31 46.648438 31.164062 46.355469 31.375 C 46.246094 31.453125 46.171875 31.601562 46 31.578125 C 45.808594 30.78125 46.367188 29.753906 47.214844 29.289062 C 47.8125 28.960938 48.472656 28.902344 49.125 28.800781 C 50.386719 28.597656 51.523438 28.101562 52.484375 27.242188 C 52.535156 27.195312 52.601562 27.160156 52.664062 27.128906 C 52.691406 27.117188 52.730469 27.128906 52.773438 27.128906 C 52.910156 27.351562 52.765625 27.546875 52.695312 27.734375 C 52.335938 28.726562 51.726562 29.558594 50.980469 30.300781 C 49.902344 31.371094 48.769531 32.386719 47.890625 33.644531 C 46.710938 35.335938 45.988281 37.195312 45.644531 39.222656 C 45.515625 39.984375 45.488281 39.972656 44.773438 39.644531 C 43.390625 39.007812 41.898438 38.808594 40.367188 38.570312 Z M 40.367188 38.570312 "/>
<path style=" stroke:none;fill-rule:nonzero;fill:rgb(0%,0%,0%);fill-opacity:1;" d="M 42.4375 43.46875 C 35.957031 41.722656 29.578125 41.824219 23.226562 44.082031 C 22.980469 43.625 22.984375 43.058594 22.832031 42.535156 C 22.710938 42.125 22.644531 41.695312 22.492188 41.292969 C 22.324219 40.851562 22.492188 40.640625 22.886719 40.472656 C 24.566406 39.75 26.339844 39.414062 28.132812 39.195312 C 32.792969 38.621094 37.441406 38.679688 42.050781 39.683594 C 42.957031 39.878906 43.855469 40.117188 44.703125 40.523438 C 45.035156 40.683594 45.152344 40.871094 45.019531 41.238281 C 44.683594 42.160156 44.558594 43.140625 44.304688 44.15625 C 43.664062 43.921875 43.070312 43.703125 42.4375 43.46875 Z M 42.4375 43.46875 "/>
<path style=" stroke:none;fill-rule:nonzero;fill:rgb(0%,0%,0%);fill-opacity:1;" d="M 23.582031 27.519531 C 23.914062 28.003906 24.371094 28.292969 24.78125 28.632812 C 25.203125 28.988281 25.421875 29.417969 25.25 29.988281 C 24.96875 29.996094 24.761719 29.636719 24.488281 29.929688 C 24.210938 30.226562 24.335938 30.527344 24.445312 30.828125 C 24.703125 31.527344 25.210938 32.019531 25.800781 32.441406 C 26.003906 32.582031 26.242188 32.675781 26.390625 32.886719 C 26.015625 33.785156 23.839844 33.847656 22.589844 32.96875 C 23.34375 32.015625 23.042969 31.011719 22.710938 29.988281 C 22.335938 28.84375 22.511719 27.746094 23.109375 26.660156 C 23.382812 26.917969 23.386719 27.25 23.582031 27.519531 Z M 23.582031 27.519531 "/>
<path style=" stroke:none;fill-rule:nonzero;fill:rgb(0%,0%,0%);fill-opacity:1;" d="M 43.492188 33.535156 C 42.582031 33.652344 41.75 33.621094 41.066406 32.953125 C 41.257812 32.632812 41.5625 32.535156 41.804688 32.363281 C 42.394531 31.929688 42.867188 31.402344 43.09375 30.695312 C 43.171875 30.445312 43.222656 30.164062 43.011719 29.933594 C 42.773438 29.664062 42.5625 29.941406 42.320312 29.992188 C 42.101562 29.761719 42.160156 29.507812 42.261719 29.253906 C 42.402344 28.890625 42.675781 28.636719 42.984375 28.414062 C 43.582031 27.996094 44.089844 27.507812 44.246094 26.765625 C 44.46875 26.722656 44.5 26.898438 44.554688 27.011719 C 45.003906 27.949219 45.089844 28.925781 44.800781 29.929688 C 44.699219 30.289062 44.585938 30.648438 44.480469 31.007812 C 44.320312 31.566406 44.375 32.105469 44.695312 32.601562 C 44.890625 32.902344 44.824219 33.085938 44.503906 33.226562 C 44.191406 33.363281 43.878906 33.484375 43.492188 33.535156 Z M 43.492188 33.535156 "/>
</g>
</svg>
